<?xml version="1.0" standalone="no"?>
<!DOCTYPE svg PUBLIC "-//W3C//DTD SVG 20010904//EN"
 "http://www.w3.org/TR/2001/REC-SVG-20010904/DTD/svg10.dtd">
<svg version="1.0" xmlns="http://www.w3.org/2000/svg"
 width="512.000000pt" height="512.000000pt" viewBox="0 0 512.000000 512.000000"
 preserveAspectRatio="xMidYMid meet">
<metadata>
Created by potrace 1.16, written by Peter Selinger 2001-2019
</metadata>
<g transform="translate(0.000000,512.000000) scale(0.100000,-0.100000)"
fill="#000000" stroke="none">
<path d="M2375 5107 c-38 -4 -83 -9 -100 -11 -16 -1 -37 -5 -45 -8 -8 -3 -50
-18 -93 -33 -130 -45 -236 -126 -276 -209 -27 -55 -26 -75 4 -116 30 -41 68
-67 118 -80 20 -6 37 -15 37 -21 0 -6 4 -7 10 -4 5 3 47 -1 92 -10 132 -25
274 -35 553 -39 143 -2 348 -8 455 -12 107 -4 206 -7 220 -6 34 1 163 -34 209
-57 49 -25 105 -89 121 -136 30 -92 -16 -221 -93 -258 -36 -18 -38 -18 -99 2
-35 12 -103 27 -153 35 -125 20 -244 55 -514 152 -158 57 -232 43 -367 -73
-210 -180 -309 -246 -544 -361 -189 -93 -262 -151 -330 -259 -69 -109 -102
-228 -114 -409 -7 -104 -26 -140 -237 -449 -107 -156 -170 -347 -174 -530 -3
-111 -8 -135 -60 -270 -63 -162 -85 -228 -85 -251 0 -13 -5 -24 -11 -24 -7 0
-10 -67 -8 -213 l3 -214 -41 -61 c-55 -82 -82 -167 -97 -309 -15 -138 -21
-150 -129 -263 -90 -94 -121 -139 -136 -196 -8 -28 -23 -50 -51 -73 -60 -48
-109 -128 -116 -188 -12 -99 38 -125 86 -43 14 25 34 47 44 48 15 3 17 -1 11
-30 -4 -18 -13 -46 -21 -62 -20 -41 -18 -55 11 -62 26 -6 143 -1 181 9 12 3
47 17 77 31 49 24 57 32 76 79 11 28 26 77 32 107 8 39 21 65 44 90 45 48 68
135 62 244 -5 99 5 128 69 192 91 93 160 222 188 354 19 88 19 89 103 221 40
64 87 148 105 185 39 85 85 154 102 154 7 0 25 -14 42 -31 l29 -30 0 -143 c1
-161 11 -192 65 -203 17 -3 30 -8 30 -10 0 -2 -11 -24 -25 -48 -14 -23 -37
-82 -51 -131 -38 -132 -109 -220 -216 -269 -34 -15 -64 -38 -75 -55 -10 -16
-48 -49 -83 -73 -87 -58 -108 -97 -109 -199 -1 -46 3 -78 9 -78 6 0 10 -6 10
-12 0 -7 7 -22 15 -32 15 -19 16 -19 54 18 55 54 88 28 36 -28 l-25 -27 27
-10 c56 -21 187 15 251 70 25 22 52 79 52 111 0 12 14 34 32 50 17 16 45 61
62 102 71 167 131 255 199 290 92 47 140 102 168 196 18 60 107 142 154 142
19 0 36 -4 40 -9 13 -22 -121 -281 -145 -281 -24 0 -105 -99 -141 -172 -35
-74 -37 -83 -25 -112 17 -43 48 -46 76 -7 36 52 50 34 24 -33 -7 -19 52 -57
81 -51 89 20 118 30 174 58 54 27 66 38 73 65 5 17 13 32 19 32 7 0 8 14 4 40
-5 32 -2 46 16 72 12 18 31 40 41 48 26 21 33 81 18 144 -12 51 -11 57 16 125
16 39 34 71 39 70 17 0 81 -101 98 -154 8 -27 20 -74 26 -103 27 -134 112
-198 228 -171 31 7 106 8 213 4 187 -7 175 -11 239 78 23 31 46 57 52 57 20 0
41 72 35 120 -9 68 10 195 39 259 15 31 43 73 63 94 45 47 187 150 239 174 21
9 41 19 45 21 21 11 168 -307 168 -365 0 -26 -53 -187 -65 -195 -7 -5 -6 -11
1 -15 6 -5 17 -32 24 -61 14 -51 13 -54 -20 -125 -50 -108 -50 -136 -4 -187
42 -46 104 -90 128 -90 8 0 17 14 21 32 4 18 12 42 17 52 10 19 11 19 24 1 8
-10 14 -34 14 -52 0 -48 21 -42 90 25 56 54 60 61 60 102 0 28 -10 66 -27 100
-24 48 -27 68 -28 160 0 80 -6 123 -24 180 -19 61 -22 88 -17 145 8 88 47 279
58 283 11 5 10 108 -1 130 -6 9 -17 69 -26 132 -8 63 -20 119 -26 125 -5 5
-56 44 -112 86 -115 86 -107 87 -127 -26 -27 -153 -99 -247 -250 -326 -97 -50
-165 -100 -256 -189 -111 -108 -163 -239 -164 -411 0 -76 0 -76 -42 -121 l-43
-45 -80 8 c-44 4 -95 8 -112 8 l-33 1 7 45 c5 39 2 49 -17 70 -12 13 -36 29
-52 36 -29 12 -32 11 -63 -23 l-33 -36 -21 63 -21 62 46 124 c26 68 65 162 87
209 59 126 53 184 -19 166 -40 -10 -124 -99 -164 -174 -18 -34 -36 -59 -41
-56 -17 10 -9 123 16 210 31 112 114 278 166 335 65 72 81 164 43 241 -8 14
-34 44 -60 65 -161 133 -204 198 -204 310 l0 63 61 0 c83 0 134 -17 173 -58
l34 -34 43 26 c24 15 57 37 72 49 24 18 41 22 102 22 68 0 76 -2 104 -29 17
-17 31 -33 31 -38 0 -4 -20 -8 -44 -8 -108 0 -210 -33 -268 -89 -35 -33 -38
-39 -38 -92 0 -107 51 -197 166 -292 51 -42 86 -61 162 -88 89 -31 107 -34
212 -34 104 0 121 3 172 27 90 42 196 164 126 144 -78 -22 -132 -28 -227 -24
-94 3 -114 7 -173 35 -47 22 -71 40 -82 62 -37 71 -10 109 84 120 79 10 97 35
65 91 -20 35 -18 42 8 38 18 -2 25 -14 38 -63 24 -89 28 -98 62 -125 39 -31
118 -35 161 -7 25 17 26 20 13 40 -7 12 -35 33 -60 46 -60 31 -69 57 -31 88
31 25 47 24 134 -4 129 -42 229 -114 231 -166 4 -96 -4 -84 124 -184 152 -119
206 -155 275 -183 30 -12 63 -26 72 -31 23 -12 215 -12 223 0 3 5 18 12 34 16
53 11 120 63 156 119 19 30 35 60 35 66 0 13 -97 13 -105 0 -10 -16 -159 -12
-212 6 -36 12 -71 38 -138 103 -109 106 -133 121 -255 157 -84 26 -101 35
-155 85 -71 66 -82 73 -182 104 -93 30 -253 48 -349 39 l-71 -6 -26 45 c-52
89 -141 137 -253 137 -42 0 -53 3 -57 19 -2 10 -1 24 3 31 12 19 116 6 169
-21 42 -22 44 -22 57 -4 19 26 18 33 -14 63 -51 47 -119 75 -199 80 l-73 5 0
35 c0 34 0 35 38 29 57 -9 109 7 162 52 27 23 52 41 57 41 4 0 14 -15 22 -32
29 -69 123 -254 136 -266 10 -11 17 -12 35 -2 20 11 22 18 17 69 -10 111 -184
483 -341 731 -13 19 -43 67 -67 105 -24 39 -58 89 -76 113 -62 82 -30 122 53
66 91 -61 173 -164 244 -304 46 -93 103 -165 155 -195 59 -35 138 -43 185 -18
32 17 35 22 33 59 -1 23 -14 66 -29 95 -19 37 -28 71 -29 110 -3 70 -16 94
-65 119 -21 11 -41 24 -45 30 -14 22 8 52 53 71 73 32 111 28 178 -19 83 -56
122 -115 159 -237 12 -42 30 -74 60 -105 93 -99 143 -206 152 -325 4 -56 0
-91 -21 -172 -34 -135 -34 -193 5 -307 28 -82 30 -99 26 -173 -4 -45 -3 -84 1
-86 4 -3 37 -8 74 -12 l67 -7 6 29 c4 15 10 36 16 45 11 21 12 135 2 140 -10
4 -52 118 -65 175 -8 35 -5 60 18 145 62 231 24 413 -124 600 -36 45 -66 95
-77 129 -30 93 -75 170 -126 220 l-50 48 20 38 c51 101 63 211 36 317 -27 104
-108 194 -230 254 -139 70 -263 82 -849 88 -242 2 -433 8 -450 14 -17 5 -56
10 -86 11 -70 1 -173 24 -205 45 -51 33 -21 107 55 138 48 19 69 15 246 -43
183 -60 267 -75 403 -68 88 4 136 11 200 32 l84 27 -29 19 c-16 10 -43 19 -60
19 -58 0 -139 20 -158 39 -19 19 -18 20 18 26 36 7 270 -35 308 -56 30 -15 84
-10 127 13 23 12 41 25 41 28 0 15 -178 90 -273 114 -31 8 -61 17 -66 20 -5 3
-85 17 -177 31 -168 26 -224 28 -359 12z m491 -1472 c85 -25 185 -147 225
-275 32 -104 7 -154 -76 -152 -64 0 -122 36 -177 109 -26 34 -51 70 -56 79 -9
16 -13 16 -60 -4 -70 -30 -107 -29 -143 7 -35 36 -37 69 -4 105 22 24 30 26
110 26 l85 0 -6 39 c-5 32 -2 42 17 60 27 25 23 25 85 6z m-986 -603 l0 -67
69 -85 c38 -47 89 -103 115 -124 26 -22 43 -43 39 -47 -34 -31 -258 -39 -313
-11 -43 21 -80 75 -80 115 0 46 35 109 76 136 l36 25 -7 57 c-6 50 -5 58 12
62 51 13 53 11 53 -61z m535 -364 c20 -21 42 -65 60 -118 15 -47 40 -109 56
-139 31 -57 37 -113 18 -153 -6 -13 -58 -61 -115 -108 -129 -105 -159 -154
-158 -265 0 -84 28 -152 101 -248 56 -75 103 -161 103 -191 0 -13 -11 -33 -24
-45 -34 -32 -116 -40 -409 -41 -266 -1 -290 3 -314 50 -17 33 -16 152 1 193
28 68 134 137 210 137 31 0 40 17 27 51 -14 39 -137 64 -311 64 -74 0 -147 -3
-162 -8 -33 -9 -114 -108 -227 -277 -103 -153 -127 -180 -161 -180 -52 0 -65
30 -64 149 1 144 40 266 183 577 30 64 59 148 71 200 22 103 41 127 93 117 40
-7 46 -13 77 -71 21 -40 30 -47 59 -50 45 -5 65 16 97 100 29 77 75 133 118
144 47 11 98 -7 121 -43 26 -42 65 -53 141 -41 101 16 148 53 223 177 30 49
54 62 111 57 35 -3 51 -11 75 -38z m1585 -798 c30 -105 40 -309 16 -345 -9
-14 -26 -25 -38 -25 -27 0 -88 68 -139 155 l-39 67 29 34 c41 46 109 147 121
180 14 37 25 23 50 -66z m-2911 -784 c16 -19 5 -58 -35 -127 -32 -54 -100
-129 -117 -129 -17 0 31 189 56 220 16 21 59 50 73 50 6 0 17 -6 23 -14z"/>
<path d="M2945 1880 c-17 -27 -22 -82 -13 -120 18 -69 84 -101 136 -64 32 22
27 36 -24 66 -34 21 -51 40 -68 80 -15 35 -25 47 -31 38z"/>
</g>
</svg>
